<?xml version="1.0" encoding="UTF-8" standalone="no"?>
<!-- Created with Inkscape (http://www.inkscape.org/) -->

<svg
   width="256mm"
   height="256mm"
   viewBox="0 0 256 256"
   version="1.1"
   id="svg1"
   xml:space="preserve"
   inkscape:version="1.3.2 (091e20e, 2023-11-25, custom)"
   sodipodi:docname="logo.svg"
   inkscape:export-filename="logo.png"
   inkscape:export-xdpi="96"
   inkscape:export-ydpi="96"
   xmlns:inkscape="http://www.inkscape.org/namespaces/inkscape"
   xmlns:sodipodi="http://sodipodi.sourceforge.net/DTD/sodipodi-0.dtd"
   xmlns="http://www.w3.org/2000/svg"
   xmlns:svg="http://www.w3.org/2000/svg"><sodipodi:namedview
     id="namedview1"
     pagecolor="#ffffff"
     bordercolor="#000000"
     borderopacity="0.25"
     inkscape:showpageshadow="2"
     inkscape:pageopacity="0.0"
     inkscape:pagecheckerboard="0"
     inkscape:deskcolor="#d1d1d1"
     inkscape:document-units="mm"
     inkscape:zoom="0.81201249"
     inkscape:cx="253.69068"
     inkscape:cy="524.00672"
     inkscape:window-width="3818"
     inkscape:window-height="2032"
     inkscape:window-x="-122"
     inkscape:window-y="116"
     inkscape:window-maximized="0"
     inkscape:current-layer="layer1" /><defs
     id="defs1" /><g
     inkscape:label="图层 1"
     inkscape:groupmode="layer"
     id="layer1"><ellipse
       style="fill:#ffffff;stroke-width:0.33024"
       id="path2"
       cx="128"
       cy="129.67754"
       rx="115.01695"
       ry="114.95086" /><path
       style="fill:#000000;stroke-width:1.76774"
       d="M 114.26546,248.16989 C 15.822545,236.22492 -26.596701,114.98096 43.311053,45.365833 109.29909,-20.345982 221.64546,10.918848 243.81811,101.16487 263.48985,181.23166 195.78167,258.06096 114.26546,248.16989 Z m 32.03832,-10.00226 C 266.68673,216.65662 267.80306,43.388926 147.70248,21.079818 39.958068,1.0659173 -27.636977,138.54349 54.213869,211.22072 c 5.882187,5.22293 5.400549,5.0764 5.236575,1.59315 l -0.141243,-3.00068 -1.627021,-0.23385 c -4.108214,-0.59049 -2.780432,-4.75137 2.872956,-9.00305 4.370739,-3.28705 5.41501,-5.16975 5.99716,-10.81224 0.564633,-5.47269 2.263336,-7.72345 4.455785,-5.90387 1.771093,1.46987 0.213985,5.17585 -1.843039,4.38651 -0.912964,-0.35034 -0.965942,0.44744 -0.07867,1.18387 2.645167,2.19529 5.922633,-3.31907 3.785867,-6.36976 -2.528725,-3.61023 -7.716688,-0.60721 -7.716688,4.46676 0,5.31684 -1.95255,9.81923 -5.044015,11.63093 -2.652609,1.55454 -2.828411,1.21375 -1.33609,-2.58991 1.769201,-4.50939 2.0709,-5.7118 2.868997,-11.43389 1.073969,-7.7 2.230915,-9.08185 6.620763,-7.90774 3.810971,1.01928 4.658068,-0.39438 3.65426,-6.09825 -0.851605,-4.83906 -0.846532,-9.13584 0.01415,-12.74446 0.365956,-1.53277 0.621552,-2.82244 0.567973,-2.86594 -0.05356,-0.0436 -1.360219,-0.43927 -2.903662,-0.87945 -9.610092,-2.74069 -14.499111,-8.91166 -14.499111,-18.30092 v -4.72147 l 2.512692,-4.98135 c 3.561929,-7.06137 3.788076,-10.71887 0.86983,-14.06726 -4.410849,-5.06103 -13.207517,-0.61621 -9.436269,4.76798 1.882866,2.68817 6.835791,0.53766 5.313366,-2.307 -0.429276,-0.80212 -0.376315,-0.92137 0.347237,-0.78204 1.327656,0.25568 2.143783,2.3656 1.53471,3.96759 -2.773999,7.29617 -13.756292,2.65186 -12.270528,-5.1891 2.244101,-11.84294 19.997293,-9.27438 20.818953,3.01213 l 0.132049,1.97359 2.481527,-2.72847 c 8.035076,-8.8347 8.234246,-20.67333 0.411511,-24.460264 -6.710335,-3.248413 -14.035894,3.620788 -8.953359,8.395592 3.122135,2.933092 8.334476,-0.589132 6.044288,-4.084425 -0.936156,-1.428761 -0.646407,-1.808328 0.794473,-1.040662 4.121277,2.195698 2.425455,9.113719 -2.505374,10.220549 -5.942148,1.33385 -11.135167,-3.06006 -11.135167,-9.421678 v -2.608969 l -2.22096,-1.101998 c -3.358659,-1.666452 -5.389114,-5.451896 -4.603445,-8.582298 0.387099,-1.542318 0.889771,-1.482338 1.517635,0.18109 1.166439,3.090237 4.910429,3.944234 10.656624,2.43076 4.8901,-1.287996 7.260188,-1.254844 11.955519,0.167206 1.007661,0.305189 0.948743,0.187438 -0.426235,-0.851849 -1.892129,-1.430167 -3.549981,-1.98473 -7.150484,-2.391842 -4.855574,-0.549046 -7.470761,-3.207763 -7.769472,-7.898815 -0.267846,-4.206417 1.31484,-6.90747 1.977546,-3.374931 0.190932,1.017717 0.952419,2.184717 2.105071,3.226056 2.055008,1.856584 2.221351,1.922804 7.215199,2.872413 10.173024,1.934444 17.067346,9.621878 17.665847,19.698106 0.02952,0.49803 0.205994,0.121974 0.39203,-0.835754 1.006176,-5.179779 -1.193308,-10.479193 -6.744134,-16.249209 -3.919931,-4.074741 -4.952412,-6.144142 -4.218732,-8.455725 0.408507,-1.28712 0.873066,-1.139203 1.481079,0.471575 0.376757,0.998161 1.825751,2.231718 5.172812,4.403732 12.599576,8.17625 14.141335,21.476306 4.025785,34.7284 -2.147302,2.81313 -0.628642,1.93739 2.709777,-1.56261 4.440317,-4.65519 6.471519,-9.805211 6.497409,-16.47382 l 0.0159,-4.007597 0.922982,1.108027 c 7.830922,9.400831 -0.21933,24.74009 -16.130832,30.73619 -9.310123,3.50846 -12.874757,5.96047 -14.78665,10.17133 -5.146015,11.33388 8.072762,21.97968 17.195842,13.84874 4.106728,-3.6601 9.004606,-6.03991 17.210814,-8.36242 11.894728,-3.36644 17.855548,-6.64609 22.040198,-12.12657 2.10203,-2.75293 2.02704,-2.87552 -1.11004,-1.81452 -3.37764,1.14233 -6.51672,0.59822 -9.17098,-1.58965 -2.06201,-1.69967 -1.91454,-2.03359 0.82368,-1.86523 4.2123,0.25905 7.08216,-1.79642 8.96772,-6.4229 4.27178,-10.48137 4.76191,-11.16979 6.2446,-8.77078 8.10316,13.11117 28.46036,11.3651 28.26105,-2.424 -0.10998,-7.607178 -9.51602,-10.896414 -13.64325,-4.770952 -2.83466,4.207072 1.61679,10.473702 5.42189,7.632782 1.5637,-1.16747 2.04727,-2.34131 0.65829,-1.59793 -3.61745,1.93599 -6.37789,-2.620077 -3.39484,-5.603117 4.51193,-4.511931 10.60909,2.398469 7.49757,8.497567 -3.46921,6.8002 -14.37864,6.41221 -20.97692,-0.74607 -4.84599,-5.257245 -6.14573,-12.183618 -4.30022,-22.916196 1.15779,-6.733127 0.42552,-6.446141 -2.3276,0.912243 -3.68755,9.855855 -14.70885,12.742543 -20.12176,5.270248 -1.757153,-2.425683 -1.718733,-2.886249 0.15856,-1.900344 4.43964,2.331614 8.41341,0.554765 11.33108,-5.066614 2.37342,-4.572813 2.7257,-4.925095 6.778,-6.778321 4.09548,-1.872983 4.4036,-2.126337 8.0587,-6.626504 4.27384,-5.261955 2.72518,-5.069973 -3.1661,0.392488 -7.92588,7.348967 -15.74879,7.800705 -19.65514,1.135002 -1.39936,-2.38781 -1.27179,-2.963127 0.41236,-1.859634 3.87404,2.538364 7.73449,1.236555 13.52524,-4.560954 4.99589,-5.001692 5.92919,-5.397084 9.8183,-4.159607 6.44923,2.052073 13.93938,2.771008 13.93938,1.337958 0,-0.427 -1.49804,-0.869009 -4.75984,-1.404431 -17.33789,-2.845993 -29.46128,-13.738924 -27.65805,-24.850922 0.256,-1.577503 1.08113,-2.350865 1.08113,-1.013295 0,8.113075 12.92971,16.969965 28.76434,19.70364 14.86439,2.566175 19.30069,4.604996 22.9758,10.559163 2.87584,4.659233 5.43923,4.180344 2.92035,-0.545574 -3.73766,-7.012564 -15.18357,-12.124355 -28.14539,-12.569865 -1.03255,-0.0355 0.37759,-0.889909 2.35411,-1.4264 1.22854,-0.333456 2.3141,-0.67074 2.41236,-0.749518 0.0982,-0.07878 -0.93594,-1.360735 -2.29825,-2.848792 -4.23769,-4.628817 -5.97761,-10.168131 -4.66564,-14.853956 0.78139,-2.79085 1.09017,-2.673067 1.83879,0.701367 1.64053,7.394766 7.76998,13.360555 17.30081,16.838881 7.73098,2.821459 11.90691,5.820571 14.55214,10.451227 1.13768,1.991564 1.6768,2.427367 4.26932,3.451154 6.79352,2.682772 13.49074,8.318039 13.49074,11.351566 0,1.678022 2.72497,4.178587 8.06857,7.404125 6.22686,3.758707 6.55414,6.292482 1.55577,12.044866 l -1.58259,1.821337 -1.42398,-0.830483 c -1.42071,-0.828573 -1.42883,-0.826962 -3.5242,0.701564 -2.79821,2.041209 -2.50764,2.676381 1.23277,2.694962 2.10026,0.01073 1.59696,1.96959 -1.3537,5.269519 -1.68217,1.88126 -1.98971,3.59256 -1.02581,5.70809 0.73068,1.60363 0.30739,1.87928 -1.4725,0.95887 -1.87017,-0.96711 -2.9609,-3.41594 -2.53431,-5.68988 0.29445,-1.56953 0.25825,-1.63299 -0.65332,-1.14514 -1.24261,0.66504 -1.66486,2.04366 -1.27024,4.14721 0.31349,1.67106 0.31046,1.67477 -0.77408,0.95557 -1.8308,-1.21405 -2.50548,-3.70901 -1.79917,-6.653224 0.8177,-3.408602 -2.25326,-5.998164 -7.90741,-6.667815 -6.66374,-0.78921 -5.59757,3.606619 2.89836,11.949999 5.7126,5.61002 7.8147,8.70566 8.75213,12.88868 0.62458,2.78699 0.45279,2.98638 -1.42257,1.65102 -1.3616,-0.96957 -1.46244,-0.98338 -1.22404,-0.16794 2.74847,9.40113 1.02076,17.86084 -5.53061,27.08057 -3.29885,4.6425 -3.3813,4.67977 -5.79436,2.61937 l -2.05234,-1.75237 1.05888,-2.77206 c 1.13471,-2.97053 1.43508,-7.35111 0.60571,-8.83313 -0.41961,-0.74978 -0.54121,-0.5764 -0.8335,1.18846 -0.94669,5.716 -2.91022,8.71371 -4.99982,7.63316 -2.52421,-1.30533 -0.79198,0.75203 6.40469,7.60673 9.24968,8.81021 9.74934,11.17842 3.76638,17.85093 -2.01011,2.24179 -5.50163,7.73077 -8.08265,12.70665 -2.6514,5.11157 -3.34855,5.81044 -6.74746,6.76414 -1.54688,0.43403 -4.04906,1.58839 -5.56041,2.56521 -4.86892,3.14694 -13.54547,3.92662 -13.54547,1.21721 0,-9.15027 5.52094,-16.20585 9.65925,-12.34421 1.27532,1.19004 3.1505,0.9948 3.34235,-0.34799 0.0768,-0.53698 -0.18638,-1.24678 -0.58464,-1.57734 -2.04802,-1.69967 0.0516,-4.22815 3.51101,-4.22815 h 2.36431 l 1.17579,-2.65867 c 2.98039,-6.73919 2.58484,-7.39989 -6.41816,-10.72045 -8.32202,-3.06943 -11.6592,-4.94642 -14.77198,-8.30864 -2.70061,-2.91698 -2.94608,-2.79234 -1.57952,0.80198 1.28281,3.37402 7.72184,7.51879 14.29284,9.2002 3.43109,0.87794 3.434,1.14213 0.0304,2.75027 -6.81419,3.21956 -13.21776,4.31824 -26.25118,4.50401 -9.05453,0.12905 -10.13214,0.23484 -13.32982,1.30871 -4.14464,1.39187 -4.06552,1.43493 -3.06183,-1.66623 0.43802,-1.3534 0.89301,-4.14449 1.01108,-6.20241 l 0.21465,-3.74172 -0.94848,1.97045 c -0.52165,1.08374 -1.48085,3.81987 -2.13149,6.08028 -3.62841,12.60506 -12.681867,20.134 -25.830877,21.48116 -3.614078,0.37027 -5.056991,1.62634 -8.20156,7.13953 -4.202503,7.36799 -4.559214,9.70665 -1.750868,11.47947 2.411789,1.5225 4.068757,3.75914 5.2277,7.0565 1.221981,3.4768 1.286381,3.4404 -6.360695,3.59362 l -6.530007,0.1308 4.141534,2.68155 c 22.73166,14.71826 52.734563,20.94522 78.626663,16.31862 z M 124.86696,218.6218 c -0.17148,-0.17148 -0.31182,-1.6027 -0.31182,-3.18047 0,-3.60742 -1.77203,-5.30601 -3.61392,-3.46413 -1.45179,1.45179 -3.28949,-0.34452 -4.0957,-4.00343 -0.54756,-2.48506 -4.94449,-6.61826 -11.33218,-10.65245 -5.525649,-3.48975 -6.045364,-5.54589 -2.41508,-9.55458 l 2.39649,-2.64628 -0.23007,-3.21544 c -0.44756,-6.25512 5.46606,-8.78394 20.57666,-8.79916 l 8.06807,-0.009 v 1.10645 c 0,3.66658 -5.36903,10.70215 -10.98453,14.39412 -4.96157,3.26204 -4.61826,3.85106 9.22973,15.83619 1.93197,1.67208 4.2918,3.64154 5.24407,4.37656 3.0056,2.31991 6.38213,8.48289 5.2615,9.60351 -0.56732,0.56732 -17.239,0.76147 -17.79322,0.20723 z m 80.88198,-45.43892 c -6.83832,-5.65085 -8.06451,-10.87381 -3.18506,-13.56693 2.63071,-1.45197 2.30339,-3.97001 -0.40434,-3.11061 -2.11551,0.67144 -2.50772,-2.73197 -0.62749,-5.44514 l 1.20743,-1.74232 -0.9876,-2.23264 c -3.37321,-7.62566 -4.51993,-7.79398 -11.22051,-1.64707 -7.21198,6.6161 -11.68721,9.15106 -14.5508,8.2422 -1.32499,-0.42054 -1.17391,-0.85611 1.5039,-4.33603 3.76825,-4.89692 7.40564,-13.52003 7.40564,-17.55636 0,-1.93594 4.60978,-4.37742 13.02603,-6.89898 4.08802,-1.22479 7.31105,1.72324 9.88353,9.04026 0.79182,2.25223 2.61513,6.77737 4.0518,10.05583 4.29625,9.80409 4.47196,10.41811 3.66573,12.8095 -0.37788,1.12086 -0.98757,3.77673 -1.35488,5.90194 -1.58653,9.18007 -4.93845,13.35786 -8.41338,10.48635 z m -98.96355,-64.43916 c -3.32923,-1.44373 -5.19737,-4.28329 -2.26464,-3.44219 4.24806,1.21833 7.60734,-1.51299 9.20992,-7.488281 0.82173,-3.063858 1.21615,-3.715529 3.86846,-6.39161 3.60669,-3.63905 3.68202,-3.644354 3.68202,-0.259534 0,1.496183 0.22252,3.924011 0.49445,5.395152 1.43547,7.765153 -7.82512,15.293673 -14.99021,12.186463 z m 68.5166,-48.593812 c -0.77171,-0.350307 -1.76011,-0.746826 -2.19641,-0.881153 -0.43629,-0.13433 -1.34134,-1.402757 -2.01119,-2.818732 -1.50377,-3.17868 -4.94508,-6.361893 -9.18722,-8.49821 -5.34367,-2.691031 -7.80055,-10.070389 -4.83633,-14.526174 l 0.89366,-1.343326 0.37501,2.572421 c 0.81105,5.56354 3.09854,8.437052 10.64701,13.374696 5.79203,3.788726 8.15134,6.713981 9.11148,11.297158 0.36544,1.744413 -0.32132,1.946644 -2.79601,0.82332 z M 88.091513,183.2705 c 4.408318,-2.28459 3.780282,-3.04473 -0.891115,-1.07857 -4.904134,2.06412 -8.481126,1.34994 -8.481126,-1.6933 0,-0.97189 0.317839,-1.48549 1.155444,-1.86713 1.380052,-0.6288 2.586265,0.11581 2.586265,1.59648 0,0.77845 0.117729,0.83772 0.701579,0.35316 1.712721,-1.42144 0.08397,-3.7417 -2.626694,-3.7417 -2.296233,0 -3.68744,1.40569 -3.68744,3.72582 0,4.96285 4.703181,6.0945 11.243087,2.70524 z m 6.4281,-8.55948 c 9.958217,-4.15343 8.507997,-19.38637 -1.845633,-19.38637 -6.846086,0 -10.026786,10.06168 -3.625186,11.46772 1.99526,0.43822 2.094959,0.0934 0.448863,-1.55281 -3.14425,-3.14425 -0.269915,-8.16399 4.166677,-7.27668 6.10234,1.22047 6.494476,10.68522 0.567009,13.68523 -9.120051,4.61583 -17.99084,-5.47754 -13.151316,-14.96381 4.302258,-8.4331 14.130327,-9.93091 21.212593,-3.23278 3.67572,3.47634 6.3183,3.9537 10.03675,1.81308 1.18014,-0.67938 2.63684,-0.93484 5.84641,-1.02533 9.98546,-0.28147 15.3183,-6.46241 17.30383,-20.05573 1.33883,-9.16597 6.23133,-14.38807 13.49154,-14.40049 12.03363,-0.0206 16.34696,16.92361 5.24111,20.58887 -6.11273,2.01739 -12.60952,-4.92545 -9.21613,-9.84892 2.78507,-4.0409 8.06843,-2.75063 8.10507,1.97938 l 0.0159,2.00905 0.91987,-1.10418 c 1.96009,-2.3528 0.52164,-6.52225 -2.60631,-7.55457 -9.79664,-3.23318 -14.12082,11.48534 -4.7857,16.28936 8.43528,4.34094 18.0625,-2.63132 17.05896,-12.35449 -1.52689,-14.79423 -21.4726,-17.63415 -28.33754,-4.03477 -1.53066,3.03222 -2.01758,3.37994 -4.73299,3.37994 -5.1417,0 -7.41822,-7.17204 -3.51537,-11.07491 3.45348,-3.45347 9.22162,-0.43228 6.29008,3.29458 -1.10948,1.41047 -1.92349,1.54668 -2.97278,0.49738 -0.66817,-0.66816 -0.73499,-0.6477 -0.73499,0.22495 0,1.9368 3.81484,2.09257 5.49565,0.22439 3.82712,-4.25376 -2.14653,-9.98828 -7.673,-7.36581 -7.84332,3.7219 -5.02988,16.53798 3.6305,16.53798 h 1.9581 l -0.29591,3.5009 c -0.59294,7.01435 -3.28083,12.23219 -3.68803,7.15932 -0.48745,-6.07256 -3.73461,-9.49094 -9.01553,-9.49094 -7.42749,0 -11.35159,9.29253 -5.53384,13.10447 4.07652,2.67103 9.29928,-0.94265 7.1545,-4.95022 -0.71272,-1.33171 -1.25346,-1.10072 -1.02748,0.43893 0.43625,2.97239 -2.80843,4.23024 -5.07232,1.96635 -3.12693,-3.12695 -0.34192,-7.99018 4.57296,-7.98535 7.59203,0.008 9.29538,12.28959 2.17312,15.66933 -6.58162,3.12319 -13.30906,-0.80104 -14.4532,-8.43081 -0.40091,-2.67343 -1.05536,-1.83913 -1.10797,1.41241 -0.0492,3.03767 0.83356,5.31233 2.84015,7.3189 1.03369,1.03373 1.8093,1.93866 1.72355,2.01099 -2.44035,2.05878 -4.7503,1.59847 -7.7934,-1.55291 -2.05536,-2.12853 -3.31323,-2.98579 -5.589754,-3.80961 -3.309745,-1.19771 -3.579943,-1.45635 -3.181208,-3.04501 0.629173,-2.5068 3.828974,-2.6395 5.259322,-0.21811 1.04545,1.7698 1.45495,1.78156 1.1985,0.0346 -0.75577,-5.14951 -8.56295,-4.67424 -9.081976,0.55286 -0.133818,1.34806 -0.318454,1.48228 -2.716031,1.97479 -16.655269,3.42142 -16.337272,27.98515 0.365797,28.2566 1.701902,0.0275 3.669923,-0.25745 4.677137,-0.67754 z m 71.232507,-14.24153 c 0.96606,0 2.30033,-1.94549 2.30033,-3.35408 0,-2.54523 -2.56357,-4.18495 -4.11589,-2.63264 -0.92981,0.92982 -0.63863,1.30168 0.79481,1.01501 1.74722,-0.34945 2.46173,1.25703 1.18603,2.66667 -3.25461,3.5963 -7.75575,-2.8014 -4.60522,-6.54561 1.25712,-1.49399 0.69687,-2.01925 -0.90465,-0.8482 -4.00928,2.93165 -0.36853,11.32047 4.29224,9.89003 0.3426,-0.1052 0.81615,-0.19118 1.05235,-0.19118 z m -14.4204,-5.97423 c 0.86874,-0.76287 1.14037,-3.38001 0.35078,-3.38001 -0.25725,0 -0.46772,0.31083 -0.46772,0.69077 0,2.37025 -3.79487,2.33128 -4.69959,-0.0483 -1.28497,-3.37975 2.74991,-4.97722 6.93893,-2.74722 3.1417,1.67245 3.84691,1.44276 1.45125,-0.47266 -2.76622,-2.21174 -5.02211,-2.87713 -7.36963,-2.1738 -2.6147,0.78339 -3.43121,0.68298 -5.22843,-0.64297 -2.32091,-1.71231 -2.34228,-0.52163 -0.0328,1.83149 1.42818,1.45522 1.92464,2.33933 1.92464,3.42753 0,3.68164 4.44716,5.87331 7.13262,3.51515 z m 26.69608,-20.75889 c -0.48266,-0.8209 -2.17877,-2.23164 -3.89509,-3.23978 -1.67207,-0.98213 -3.39817,-2.00839 -3.83578,-2.28057 -0.71665,-0.44574 -0.74679,-0.35479 -0.30367,0.91636 0.49413,1.4175 3.8576,4.67748 4.82594,4.67748 0.28497,0 1.24683,0.61181 2.13746,1.3596 1.90829,1.60221 2.43864,0.89267 1.07114,-1.43309 z m 0.58686,-10.09973 c -1.35534,-4.08058 -4.20677,-6.18005 -11.2638,-8.29345 -5.13221,-1.53698 -8.73233,-3.60715 -10.36169,-5.95832 -1.48845,-2.14782 -1.5452,-2.15933 -1.24466,-0.25229 0.57213,3.63019 4.0371,7.12157 8.68499,8.75123 8.09369,2.83784 10.40749,4.06487 13.17696,6.98792 1.74625,1.8431 1.94836,1.59546 1.0082,-1.23509 z M 78.675962,109.02108 c 1.679895,-3.56375 1.764552,-10.42036 0.165637,-13.415014 -1.463913,-2.741796 -2.019494,-2.878885 -1.24558,-0.307335 1.558204,5.177499 0.420049,12.222799 -2.843966,17.604409 -0.90492,1.49202 -1.636975,2.86009 -1.626756,3.04012 0.04932,0.8696 4.485694,-4.66295 5.550665,-6.92218 z m 97.795318,3.34315 c 0,-2.20756 -3.81557,-4.9849 -9.43945,-6.87097 -4.08365,-1.36952 -7.00766,-3.29254 -8.34737,-5.48981 l -0.9182,-1.505908 -10e-4,1.372395 c -0.004,4.273823 2.93516,6.926693 10.09841,9.110353 2.59678,0.7916 5.43813,1.94847 6.31412,2.57083 1.73124,1.23 2.29425,1.42952 2.29425,0.81311 z m -42.7592,-10.10891 c -1.92822,-2.526099 -3.43265,-6.384556 -3.83969,-9.84771 -0.31677,-2.695253 -0.80799,-3.274531 -1.28076,-1.510397 -0.96321,3.59421 0.4607,8.251452 3.43198,11.225097 2.80203,2.80426 3.78669,2.88183 1.68847,0.13294 z m 54.80274,-11.18903 c -0.64053,-4.841338 -12.97897,-7.338319 -12.97897,-2.626609 v 1.333218 l 1.36716,-1.367166 c 1.66653,-1.666536 4.50861,-1.997853 4.02336,-0.469013 -0.22249,0.701017 0.41217,1.461014 2.89169,3.46286 l 3.17675,2.564734 0.81843,-1.007386 c 0.45014,-0.554052 0.76585,-1.404834 0.70158,-1.890638 z m -23.75399,-0.21123 c 2.27706,-1.221203 2.4103,-2.014319 0.23759,-1.414399 -6.23546,1.72168 -11.98535,-5.207772 -7.7968,-9.396314 1.67219,-1.672184 3.21368,-1.8142 4.94135,-0.455238 2.05433,1.615943 1.04106,4.51618 -1.41388,4.046893 -1.20692,-0.23071 -1.39454,0.110111 -0.53422,0.970468 1.7887,1.788703 5.05129,-0.411645 5.05129,-3.406674 0,-5.411754 -8.4553,-6.221125 -10.91174,-1.044519 -3.08395,6.498928 4.24171,14.016649 10.42641,10.699783 z m -20.76252,-1.427774 c 8.21676,-3.73198 6.87408,-15.952382 -1.75272,-15.952382 -5.05356,0 -7.9256,4.906229 -5.02826,8.589615 1.0032,1.275324 3.79455,1.759395 4.40933,0.764639 0.16405,-0.265558 -0.23151,-0.467708 -0.91538,-0.467708 -1.80899,0 -3.09028,-2.811639 -2.09248,-4.591727 2.39641,-4.27523 8.37977,-1.872389 8.38482,3.367234 0.008,7.771143 -11.43717,9.213718 -14.98319,1.888621 -3.04216,-6.284237 0.42242,-13.870989 7.86458,-17.222043 2.27255,-1.023275 2.54428,-1.684911 0.68931,-1.678321 -3.66833,0.01307 -8.76488,3.965386 -10.79801,8.373811 -4.74017,10.27808 4.54098,21.325281 14.222,16.928261 z m 51.18148,-2.388714 c 0,-0.257241 -0.1644,-0.467709 -0.36518,-0.467709 -0.20083,0 -0.61142,-0.652405 -0.9124,-1.449792 -0.3163,-0.837968 -0.80367,-1.364398 -1.15489,-1.247453 -0.94938,0.316117 -1.00591,1.740364 -0.10857,2.732046 0.8561,0.945977 2.54093,1.233036 2.54093,0.432908 z m -16.10857,-8.637814 c 0.88276,-0.667675 0.87791,-0.687098 -0.17517,-0.701563 -1.66629,-0.0229 -2.74605,-0.792819 -3.28665,-2.343573 -0.69684,-1.998981 -2.41208,-1.990889 -2.41208,0.01186 0,2.888466 3.60463,4.750176 5.87394,3.033745 z m 4.41575,-1.560294 c 0,-2.940508 -4.33176,-6.228208 -8.79708,-6.676757 -1.9785,-0.198748 -4.12349,-0.498954 -4.7666,-0.667125 l -1.16929,-0.305767 1.22832,1.134373 c 0.78439,0.724409 2.30568,1.346267 4.20941,1.720684 3.72847,0.733294 4.44152,1.098308 6.55186,3.353864 1.59125,1.700745 2.74338,2.305808 2.74338,1.440728 z m -29.61139,-4.199327 c -3.12082,-1.794448 -6.61212,-7.531373 -5.35086,-8.792605 0.6414,-0.641417 5.91581,2.019001 8.10214,4.086747 2.00973,1.900737 4.40989,2.993917 4.40989,2.008549 0,-1.174286 -2.56021,-4.22857 -5.20239,-6.206352 -2.26782,-1.69756 -9.70849,-3.753396 -9.85921,-2.724069 -0.99085,6.766958 2.77893,12.805615 8.04591,12.888471 l 2.1047,0.03311 z"
       id="path1" /></g></svg>
